<svg xmlns="http://www.w3.org/2000/svg" version="1.1" xmlns:xlink="http://www.w3.org/1999/xlink" xmlns:svgjs="http://svgjs.dev/svgjs" width="1440" height="800" preserveAspectRatio="none" viewBox="0 0 1440 800"><g mask="url(&quot;#SvgjsMask1006&quot;)" fill="none"><rect width="1440" height="800" x="0" y="0" fill="rgba(255, 255, 255, 1)"></rect><path d="M86 800L886 0L967 0L167 800z" fill="url(&quot;#SvgjsLinearGradient1007&quot;)"></path><path d="M548.2 800L1348.2 0L1765.2 0L965.2 800z" fill="url(&quot;#SvgjsLinearGradient1007&quot;)"></path><path d="M1361 800L561 0L208.5 0L1008.5 800z" fill="url(&quot;#SvgjsLinearGradient1008&quot;)"></path><path d="M886.8 800L86.79999999999995 0L-421.70000000000005 0L378.29999999999995 800z" fill="url(&quot;#SvgjsLinearGradient1008&quot;)"></path><path d="M723.0008170554081 800L1440 83.0008170554081L1440 800z" fill="url(&quot;#SvgjsLinearGradient1007&quot;)"></path><path d="M0 800L716.9991829445919 800L 0 83.0008170554081z" fill="url(&quot;#SvgjsLinearGradient1008&quot;)"></path></g><defs><mask id="SvgjsMask1006"><rect width="1440" height="800" fill="#ffffff"></rect></mask><linearGradient x1="0%" y1="100%" x2="100%" y2="0%" id="SvgjsLinearGradient1007"><stop stop-color="rgba(11, 77, 16, 1)" offset="0"></stop><stop stop-opacity="0" stop-color="rgba(11, 77, 16, 1)" offset="0.66"></stop></linearGradient><linearGradient x1="100%" y1="100%" x2="0%" y2="0%" id="SvgjsLinearGradient1008"><stop stop-color="rgba(11, 77, 16, 1)" offset="0"></stop><stop stop-opacity="0" stop-color="rgba(11, 77, 16, 1)" offset="0.66"></stop></linearGradient></defs></svg>